<svg width="331" height="150" viewBox="0 0 331 150" fill="none" xmlns="http://www.w3.org/2000/svg">
<mask id="mask0_1_364" style="mask-type:luminance" maskUnits="userSpaceOnUse" x="0" y="0" width="330" height="93">
<path d="M329.951 0H0.251038V92.974H329.951V0Z" fill="white"/>
</mask>
<g mask="url(#mask0_1_364)">
<path d="M256.177 25.8017C251.391 10.1226 225.094 -0.385111 185.099 -1.11107e-05C178.112 0.110017 171.4 0.440103 165.074 1.04526C137.126 3.79597 115.506 11.9931 98.6715 25.6366C72.5947 25.1965 41.7318 31.138 25.2275 38.5099C-20.2693 59.0302 -3.48993 92.6439 74.7403 92.6439C102.688 92.6439 136.026 85.5471 158.527 67.4474H163.918C164.193 68.2176 164.579 68.9328 165.019 69.648C171.29 80.2107 189.885 87.6927 212.001 90.7735C242.919 94.7895 276.312 94.4044 308.221 78.5053C345.63 59.9105 338.698 27.3421 256.177 25.8017ZM287.315 72.1236C264.319 80.5958 236.812 81.421 212.386 76.9649C179.982 71.3534 175.746 56.1145 198.962 45.8268C207.82 41.9758 216.237 39.8303 223.224 38.565C230.431 37.3546 222.618 29.5976 212.166 30.973C183.338 34.769 170.96 45.1667 166.669 55.5644C150.88 57.1598 131.35 52.9787 118.146 45.4967C113.25 42.746 109.289 41.9758 98.6715 41.5907C93.115 41.3707 92.6199 42.526 95.4256 46.2119C104.943 54.079 119.137 62.2761 137.567 65.0268C124.748 73.8841 107.474 80.1007 79.0864 80.1007C20.2762 80.1007 4.65217 60.9007 38.981 47.0371C60.2165 38.3999 75.0704 37.6297 89.154 36.8595C109.839 35.7042 128.764 39.9403 141.803 46.652C146.754 49.1827 149.835 48.3025 156.932 48.5775C163.918 48.8526 164.634 47.5323 160.122 43.0761C148.514 31.8532 135.806 29.1575 121.337 25.9117C131.02 15.1839 155.556 12.4882 179.157 11.9931C229.11 10.9478 248.75 25.9117 228.56 41.2607C223.609 45.1116 215.027 47.7523 209.03 49.4578C200.723 51.9884 200.613 53.5838 197.917 57.8749C195.992 60.7357 199.678 62.7712 203.749 61.7259C223.499 61.3959 247.32 46.542 253.096 37.1346C268.94 36.9145 283.959 38.3999 295.952 41.2607C316.308 46.2119 321.534 59.6354 287.315 72.1236Z" fill="white"/>
</g>
<path d="M303.221 149.974C302.718 149.894 302.242 149.815 301.739 149.788C299.648 149.63 297.61 149.285 295.705 148.412C293.058 147.221 291.418 145.236 291.126 142.325C291.021 141.293 291.021 140.234 291.153 139.229C291.391 137.641 291.788 136.106 292.106 134.518C295.969 134.518 299.727 134.518 303.618 134.518C303.433 135.603 303.274 136.609 303.115 137.614C302.956 138.461 302.956 139.308 303.194 140.129C303.538 141.32 304.306 142.061 305.523 142.352C308.17 142.987 310.975 141.531 312.007 138.991C312.616 137.482 312.563 136 311.61 134.677C310.949 133.751 310.155 132.851 309.281 132.11C307.905 130.919 306.37 129.913 304.941 128.802C303.856 127.981 302.797 127.161 301.765 126.288C301.077 125.705 300.442 125.017 299.833 124.356C297.848 122.133 297.134 119.46 297.504 116.548C298.272 110.779 301.501 106.783 306.82 104.719C312.06 102.681 317.512 102.601 322.937 104.11C324.684 104.586 326.272 105.433 327.621 106.677C329.051 107.974 329.95 109.562 330.162 111.494C330.189 111.811 330.241 112.129 330.189 112.446C329.897 114.008 329.58 115.569 329.262 117.184C325.557 117.184 321.932 117.184 318.253 117.184C318.279 116.945 318.279 116.76 318.306 116.548C318.438 115.781 318.597 115.013 318.676 114.22C318.835 112.235 317.829 110.938 315.845 110.7C315.077 110.594 314.257 110.567 313.489 110.7C311.478 110.991 309.89 112.79 309.784 114.775C309.705 115.993 310.102 116.998 311.054 117.766C312.669 119.063 314.31 120.359 315.898 121.683C317.459 123.006 318.994 124.356 320.476 125.758C321.217 126.446 321.852 127.24 322.461 128.034C324.287 130.39 324.869 133.063 324.234 135.947C323.969 137.191 323.652 138.461 323.202 139.679C321.217 145.104 317.327 148.306 311.663 149.391C310.472 149.63 309.228 149.682 308.011 149.841C307.667 149.894 307.349 149.947 307.005 150C305.735 149.974 304.465 149.974 303.221 149.974Z" fill="white"/>
<path d="M111.509 104.084C117.332 104.084 123.075 104.084 128.95 104.084C129.029 105.195 128.976 106.28 129.003 107.365C129.003 108.503 129.003 109.641 129.029 110.753C129.029 111.864 129.029 112.949 129.029 114.061C129.029 115.172 129.029 116.257 129.029 117.369C129.029 118.48 129.029 119.565 129.056 120.677C129.056 121.815 129.056 122.953 129.082 124.065C129.082 125.176 129.109 126.261 129.109 127.373C129.109 128.458 129.109 129.569 129.109 130.787C129.611 130.548 129.691 130.204 129.823 129.94C134.005 122.291 138.16 114.643 142.315 106.968C142.738 106.174 143.188 105.38 143.611 104.56C143.797 104.189 144.061 104.004 144.485 104.004C150.016 104.031 155.573 104.031 161.105 104.031C161.158 104.031 161.237 104.057 161.29 104.084C161.316 104.851 150.36 146.427 149.434 149.047C145.967 149.074 142.473 149.047 138.821 149.047C141.547 138.541 144.246 128.193 146.946 117.819C146.893 117.792 146.84 117.766 146.787 117.739C146.602 118.031 146.417 118.322 146.258 118.639C140.965 128.431 135.672 138.25 130.379 148.042C130.273 148.227 130.167 148.412 130.061 148.624C129.929 148.915 129.717 149.074 129.4 149.047C126.303 149.021 123.233 149.021 120.137 148.994C120.111 148.994 120.084 148.968 119.925 148.889C119.899 143.807 120.111 138.647 120.19 133.512C120.269 128.378 120.428 123.271 120.428 118.11C119.528 120.598 118.946 123.165 118.232 125.705C117.517 128.272 116.829 130.866 116.141 133.46C115.453 136.053 114.765 138.62 114.05 141.214C113.362 143.781 112.674 146.374 111.959 148.994C107.804 148.994 103.702 148.994 99.4415 148.994C103.544 133.989 107.513 119.063 111.509 104.084Z" fill="white"/>
<path d="M15.3362 149.815C12.2398 149.815 9.61978 149.682 7.07915 148.994C5.86177 148.677 4.67085 148.253 3.58579 147.565C1.33628 146.163 0.145357 144.125 0.013033 141.478C-0.0663616 139.732 0.224752 138.038 0.674654 136.344C2.55366 129.384 4.43267 122.45 6.28521 115.49C7.4232 111.229 9.96382 108.027 13.7218 105.777C16.58 104.057 19.6764 103.104 22.9581 102.628C26.4514 102.152 29.9183 102.125 33.3852 102.919C34.8143 103.237 36.164 103.713 37.4343 104.454C40.7425 106.359 42.3303 109.535 41.6422 113.293C41.2453 115.41 40.6366 117.501 40.0808 119.618C38.5723 125.229 37.0374 130.839 35.5024 136.45C34.7085 139.388 33.4117 142.061 31.2945 144.257C28.9127 146.718 25.9751 148.121 22.7199 148.968C20.1528 149.629 17.5328 149.841 15.3362 149.815ZM16.8976 142.669C19.6764 142.749 21.5554 141.505 22.5346 138.938C22.8787 138.038 23.1962 137.112 23.4609 136.159C24.2813 133.168 25.0753 130.151 25.8692 127.134C26.8749 123.323 27.8541 119.539 28.8333 115.728C29.0979 114.696 29.2038 113.637 28.9921 112.552C28.7009 111.229 27.9599 110.382 26.6367 110.038C24.1225 109.376 21.2114 110.514 19.8087 112.79C19.4118 113.452 19.0942 114.193 18.8825 114.934C17.0035 121.683 15.1509 128.458 13.3249 135.233C12.9808 136.476 12.7426 137.747 12.5838 139.017C12.3721 140.923 13.2719 142.087 15.1245 142.458C15.7067 142.563 16.3154 142.616 16.8976 142.669Z" fill="white"/>
<path d="M257.86 104.11C257.49 104.56 257.251 104.851 257.013 105.142C251.853 111.335 246.692 117.528 241.505 123.694C241.028 124.276 240.923 124.779 241.108 125.467C243.013 132.983 244.892 140.526 246.771 148.068C246.851 148.333 246.877 148.624 246.957 148.968C246.718 149.021 246.533 149.074 246.321 149.074C242.669 149.074 239.017 149.074 235.365 149.074C234.624 149.074 234.597 149.047 234.386 148.253C232.692 142.219 231.025 136.212 229.357 130.178C229.252 129.781 229.119 129.41 228.908 129.013C227.002 135.656 225.308 142.299 223.535 148.915C222.741 149.127 211.917 149.153 210.859 148.941C214.828 133.989 218.772 119.063 222.741 104.11C226.976 104.11 231.157 104.11 235.471 104.11C233.909 109.932 232.374 115.675 230.787 121.55C231.263 121.418 231.395 121.1 231.581 120.862C235.841 115.675 240.102 110.514 244.337 105.327C244.469 105.169 244.628 105.01 244.76 104.824C245.131 104.216 245.633 104.031 246.321 104.057C248.862 104.11 251.429 104.083 253.97 104.083C254.949 104.083 255.928 104.083 256.907 104.083C257.198 104.057 257.437 104.083 257.86 104.11Z" fill="white"/>
<path d="M260.824 104.11C264.82 104.11 268.764 104.11 272.839 104.11C272.76 104.48 272.707 104.824 272.627 105.142C270.06 114.96 267.493 124.779 264.926 134.624C264.529 136.106 264.238 137.614 264.238 139.176C264.238 141.267 264.979 142.219 267.017 142.51C268.023 142.643 269.081 142.616 270.113 142.51C271.701 142.352 272.892 141.452 273.58 140.049C274.136 138.964 274.586 137.8 274.903 136.635C277.709 126.155 280.461 115.675 283.213 105.168C283.293 104.824 283.399 104.507 283.504 104.136C287.527 104.136 291.55 104.136 295.652 104.136C295.255 105.645 294.884 107.1 294.514 108.556C292.053 117.977 289.618 127.425 287.13 136.847C285.675 142.378 282.287 146.215 276.915 148.2C275.671 148.65 274.401 149.021 273.104 149.259C268.631 150.079 264.159 150.079 259.686 149.206C258.257 148.915 256.881 148.465 255.637 147.724C253.282 146.348 252.011 144.31 251.826 141.584C251.72 139.89 251.932 138.25 252.355 136.635C255.081 126.076 257.834 115.516 260.559 104.957C260.639 104.666 260.718 104.401 260.824 104.11Z" fill="white"/>
<path d="M171.585 131.66C170.023 137.509 168.488 143.251 166.953 148.994C162.693 148.994 158.485 148.994 154.144 148.994C158.141 133.989 162.137 119.063 166.133 104.083C166.424 104.057 166.662 104.031 166.927 104.031C172.749 104.031 178.571 104.031 184.394 104.031C186.643 104.031 188.866 104.269 190.983 105.01C192.069 105.38 193.154 105.883 194.133 106.492C196.435 107.974 197.573 110.17 197.785 112.87C197.997 115.569 197.362 118.11 196.488 120.624C195.059 124.779 192.28 127.637 188.231 129.278C185.743 130.284 183.123 130.919 180.45 131.157C177.91 131.395 175.369 131.475 172.829 131.607C172.458 131.686 172.088 131.66 171.585 131.66ZM173.623 124.091C175.872 124.223 177.963 124.329 180.027 123.773C181.747 123.323 183.07 122.318 183.944 120.756C184.897 119.063 185.399 117.21 185.479 115.278C185.558 113.346 184.658 112.208 182.779 111.705C182.594 111.652 182.409 111.626 182.224 111.599C180.53 111.282 178.836 111.414 177.142 111.494C177.037 111.494 176.931 111.573 176.798 111.652C175.766 115.728 174.708 119.83 173.623 124.091Z" fill="white"/>
<path d="M70.2772 104.083C74.3793 104.083 78.3225 104.083 82.4246 104.083C83.3509 109.244 84.2507 114.431 85.2299 119.804C85.5739 119.354 85.7856 119.089 85.9974 118.824C89.279 114.167 92.5871 109.535 95.8423 104.851C96.2392 104.269 96.6362 104.004 97.3772 104.03C100.659 104.083 103.914 104.057 107.196 104.057C107.487 104.057 107.804 104.057 108.281 104.057C107.99 104.48 107.804 104.772 107.619 105.036C101.4 113.267 95.1542 121.497 88.9349 129.728C88.5115 130.284 88.2204 130.866 88.0351 131.554C86.6325 137.059 85.2034 142.59 83.7743 148.094C83.6949 148.386 83.6155 148.703 83.5096 149.021C79.3547 149.021 75.2526 149.021 71.0182 149.021C71.0976 148.624 71.177 148.306 71.2564 147.989C72.7385 142.457 74.2205 136.926 75.729 131.422C75.8878 130.813 75.9142 130.257 75.7819 129.648C74.0088 121.444 72.2356 113.24 70.4625 105.036C70.3831 104.772 70.3302 104.48 70.2772 104.083Z" fill="white"/>
<path d="M65.7517 149.021C56.3567 149.021 47.0146 149.021 37.5137 149.021C38.8105 143.992 40.1867 139.043 41.5099 134.068C42.8596 129.066 44.2093 124.038 45.559 119.036C46.9087 114.061 48.232 109.085 49.5817 104.11C53.7367 104.11 57.8123 104.11 61.9937 104.11C58.7121 116.31 55.4569 128.458 52.1753 140.764C53.6044 140.764 54.9011 140.79 56.1979 140.79C57.4947 140.79 58.7915 140.79 60.0618 140.79C61.385 140.79 62.7083 140.79 64.0315 140.79C65.3018 140.79 66.5986 140.79 68.0012 140.79C67.2338 143.622 66.5192 146.295 65.7517 149.021Z" fill="white"/>
<path d="M205.857 149.021C201.543 149.021 197.388 149.021 193.074 149.021C197.07 134.015 201.04 119.089 205.01 104.11C209.191 104.11 213.346 104.11 217.633 104.11C213.717 119.089 209.8 134.015 205.857 149.021Z" fill="white"/>
</svg>
