<svg width="170" height="72" viewBox="0 0 170 72" fill="none" xmlns="http://www.w3.org/2000/svg">
<path d="M33.6722 15C33.5549 15 33.4589 14.9627 33.3842 14.888C33.3095 14.8133 33.2722 14.7227 33.2722 14.616V4.2C33.2722 4.08267 33.3095 3.98667 33.3842 3.912C33.4589 3.83733 33.5549 3.8 33.6722 3.8H34.9362C35.0855 3.8 35.1975 3.84267 35.2722 3.928C35.3469 4.00267 35.3949 4.06133 35.4162 4.104L38.5042 9.864L41.6242 4.104C41.6455 4.06133 41.6935 4.00267 41.7682 3.928C41.8429 3.84267 41.9549 3.8 42.1042 3.8H43.3522C43.4695 3.8 43.5655 3.83733 43.6402 3.912C43.7149 3.98667 43.7522 4.08267 43.7522 4.2V14.616C43.7522 14.7227 43.7149 14.8133 43.6402 14.888C43.5655 14.9627 43.4695 15 43.3522 15H42.0082C41.8909 15 41.7949 14.9627 41.7202 14.888C41.6562 14.8133 41.6242 14.7227 41.6242 14.616V7.688L39.3842 11.96C39.3309 12.056 39.2615 12.1413 39.1762 12.216C39.0909 12.28 38.9789 12.312 38.8402 12.312H38.1842C38.0349 12.312 37.9175 12.28 37.8322 12.216C37.7575 12.1413 37.6935 12.056 37.6402 11.96L35.4002 7.688V14.616C35.4002 14.7227 35.3629 14.8133 35.2882 14.888C35.2135 14.9627 35.1229 15 35.0162 15H33.6722ZM45.5529 15C45.4676 15 45.3876 14.968 45.3129 14.904C45.2489 14.84 45.2169 14.76 45.2169 14.664C45.2169 14.6213 45.2276 14.5733 45.2489 14.52L49.1049 4.2C49.1369 4.09333 49.1956 4.00267 49.2809 3.928C49.3769 3.84267 49.5049 3.8 49.6649 3.8H51.4089C51.5689 3.8 51.6916 3.84267 51.7769 3.928C51.8623 4.00267 51.9263 4.09333 51.9689 4.2L55.8249 14.52C55.8356 14.5733 55.8409 14.6213 55.8409 14.664C55.8409 14.76 55.8089 14.84 55.7449 14.904C55.6809 14.968 55.6063 15 55.5209 15H54.1289C53.9796 15 53.8676 14.968 53.7929 14.904C53.7289 14.8293 53.6863 14.76 53.6649 14.696L52.9129 12.744H48.1609L47.4089 14.696C47.3876 14.76 47.3396 14.8293 47.2649 14.904C47.2009 14.968 47.0943 15 46.9449 15H45.5529ZM48.7209 10.904H52.3529L50.5289 5.96L48.7209 10.904ZM57.7187 15C57.612 15 57.5214 14.9627 57.4467 14.888C57.372 14.8133 57.3347 14.7227 57.3347 14.616V4.2C57.3347 4.08267 57.372 3.98667 57.4467 3.912C57.5214 3.83733 57.612 3.8 57.7187 3.8H61.8627C63.1534 3.8 64.172 4.09867 64.9187 4.696C65.6654 5.29333 66.0387 6.16267 66.0387 7.304C66.0387 8.09333 65.8414 8.74933 65.4467 9.272C65.0627 9.79467 64.5454 10.1733 63.8947 10.408L66.2307 14.488C66.2627 14.552 66.2787 14.6107 66.2787 14.664C66.2787 14.76 66.2414 14.84 66.1667 14.904C66.1027 14.968 66.028 15 65.9427 15H64.4867C64.3054 15 64.1667 14.952 64.0707 14.856C63.9747 14.76 63.9 14.664 63.8467 14.568L61.7827 10.776H59.5587V14.616C59.5587 14.7227 59.5214 14.8133 59.4467 14.888C59.3827 14.9627 59.292 15 59.1747 15H57.7187ZM59.5587 8.968H61.8147C62.4654 8.968 62.9507 8.824 63.2707 8.536C63.5907 8.23733 63.7507 7.82133 63.7507 7.288C63.7507 6.75467 63.5907 6.33867 63.2707 6.04C62.9614 5.73067 62.476 5.576 61.8147 5.576H59.5587V8.968ZM72.3891 15.16C71.3971 15.16 70.5544 14.9893 69.8611 14.648C69.1784 14.296 68.6557 13.8 68.2931 13.16C67.9304 12.5093 67.7277 11.7307 67.6851 10.824C67.6744 10.3867 67.6691 9.91733 67.6691 9.416C67.6691 8.91467 67.6744 8.43467 67.6851 7.976C67.7277 7.08 67.9304 6.30667 68.2931 5.656C68.6664 5.00533 69.1944 4.50933 69.8771 4.168C70.5704 3.816 71.4077 3.64 72.3891 3.64C73.1144 3.64 73.7651 3.736 74.3411 3.928C74.9171 4.12 75.4077 4.38667 75.8131 4.728C76.2184 5.05867 76.5331 5.448 76.7571 5.896C76.9811 6.344 77.0984 6.82933 77.1091 7.352C77.1197 7.448 77.0877 7.528 77.0131 7.592C76.9491 7.656 76.8691 7.688 76.7731 7.688H75.2531C75.1357 7.688 75.0397 7.66133 74.9651 7.608C74.8904 7.544 74.8371 7.44267 74.8051 7.304C74.6344 6.6 74.3411 6.12 73.9251 5.864C73.5091 5.608 72.9917 5.48 72.3731 5.48C71.6584 5.48 71.0877 5.68267 70.6611 6.088C70.2344 6.48267 70.0051 7.13867 69.9731 8.056C69.9411 8.93067 69.9411 9.82667 69.9731 10.744C70.0051 11.6613 70.2344 12.3227 70.6611 12.728C71.0877 13.1227 71.6584 13.32 72.3731 13.32C72.9917 13.32 73.5091 13.192 73.9251 12.936C74.3411 12.6693 74.6344 12.1893 74.8051 11.496C74.8371 11.3467 74.8904 11.2453 74.9651 11.192C75.0397 11.1387 75.1357 11.112 75.2531 11.112H76.7731C76.8691 11.112 76.9491 11.144 77.0131 11.208C77.0877 11.272 77.1197 11.352 77.1091 11.448C77.0984 11.9707 76.9811 12.456 76.7571 12.904C76.5331 13.352 76.2184 13.7467 75.8131 14.088C75.4077 14.4187 74.9171 14.68 74.3411 14.872C73.7651 15.064 73.1144 15.16 72.3891 15.16ZM78.1936 15C78.1082 15 78.0282 14.968 77.9536 14.904C77.8896 14.84 77.8576 14.76 77.8576 14.664C77.8576 14.6213 77.8682 14.5733 77.8896 14.52L81.7456 4.2C81.7776 4.09333 81.8362 4.00267 81.9216 3.928C82.0176 3.84267 82.1456 3.8 82.3056 3.8H84.0496C84.2096 3.8 84.3322 3.84267 84.4176 3.928C84.5029 4.00267 84.5669 4.09333 84.6096 4.2L88.4656 14.52C88.4762 14.5733 88.4816 14.6213 88.4816 14.664C88.4816 14.76 88.4496 14.84 88.3856 14.904C88.3216 14.968 88.2469 15 88.1616 15H86.7696C86.6202 15 86.5082 14.968 86.4336 14.904C86.3696 14.8293 86.3269 14.76 86.3056 14.696L85.5536 12.744H80.8016L80.0496 14.696C80.0282 14.76 79.9802 14.8293 79.9056 14.904C79.8416 14.968 79.7349 15 79.5856 15H78.1936ZM81.3616 10.904H84.9936L83.1696 5.96L81.3616 10.904ZM97.5137 15.16C96.5644 15.16 95.7484 15.0053 95.0657 14.696C94.383 14.376 93.8497 13.8907 93.4657 13.24C93.0817 12.5787 92.8737 11.7573 92.8417 10.776C92.831 10.3173 92.8257 9.864 92.8257 9.416C92.8257 8.968 92.831 8.50933 92.8417 8.04C92.8737 7.06933 93.087 6.25867 93.4817 5.608C93.8764 4.95733 94.415 4.46667 95.0977 4.136C95.791 3.80533 96.5964 3.64 97.5137 3.64C98.431 3.64 99.2364 3.80533 99.9297 4.136C100.623 4.46667 101.167 4.95733 101.562 5.608C101.956 6.25867 102.17 7.06933 102.202 8.04C102.223 8.50933 102.234 8.968 102.234 9.416C102.234 9.864 102.223 10.3173 102.202 10.776C102.17 11.7573 101.962 12.5787 101.578 13.24C101.194 13.8907 100.655 14.376 99.9617 14.696C99.279 15.0053 98.463 15.16 97.5137 15.16ZM97.5137 13.32C98.207 13.32 98.7724 13.1173 99.2097 12.712C99.647 12.296 99.8817 11.624 99.9137 10.696C99.935 10.2267 99.9457 9.79467 99.9457 9.4C99.9457 8.99467 99.935 8.56267 99.9137 8.104C99.8924 7.48533 99.775 6.984 99.5617 6.6C99.359 6.20533 99.0817 5.92267 98.7297 5.752C98.3777 5.57067 97.9724 5.48 97.5137 5.48C97.0657 5.48 96.6657 5.57067 96.3137 5.752C95.9617 5.92267 95.679 6.20533 95.4657 6.6C95.263 6.984 95.151 7.48533 95.1297 8.104C95.119 8.56267 95.1137 8.99467 95.1137 9.4C95.1137 9.79467 95.119 10.2267 95.1297 10.696C95.1617 11.624 95.3964 12.296 95.8337 12.712C96.271 13.1173 96.831 13.32 97.5137 13.32ZM104.719 15C104.612 15 104.521 14.9627 104.447 14.888C104.372 14.8133 104.335 14.7227 104.335 14.616V4.2C104.335 4.08267 104.372 3.98667 104.447 3.912C104.521 3.83733 104.612 3.8 104.719 3.8H111.663C111.78 3.8 111.876 3.83733 111.951 3.912C112.025 3.98667 112.063 4.08267 112.063 4.2V5.32C112.063 5.43733 112.025 5.53333 111.951 5.608C111.876 5.672 111.78 5.704 111.663 5.704H106.527V8.744H111.343C111.46 8.744 111.556 8.78133 111.631 8.856C111.705 8.93067 111.743 9.02667 111.743 9.144V10.264C111.743 10.3707 111.705 10.4613 111.631 10.536C111.556 10.6107 111.46 10.648 111.343 10.648H106.527V14.616C106.527 14.7227 106.489 14.8133 106.415 14.888C106.34 14.9627 106.244 15 106.127 15H104.719ZM114.328 15C114.221 15 114.131 14.9627 114.056 14.888C113.981 14.8133 113.944 14.7227 113.944 14.616V4.184C113.944 4.07733 113.981 3.98667 114.056 3.912C114.131 3.83733 114.221 3.8 114.328 3.8H115.832C115.949 3.8 116.04 3.83733 116.104 3.912C116.179 3.98667 116.216 4.07733 116.216 4.184V14.616C116.216 14.7227 116.179 14.8133 116.104 14.888C116.04 14.9627 115.949 15 115.832 15H114.328ZM123.045 15.16C122.053 15.16 121.211 14.9893 120.517 14.648C119.835 14.296 119.312 13.8 118.949 13.16C118.587 12.5093 118.384 11.7307 118.341 10.824C118.331 10.3867 118.325 9.91733 118.325 9.416C118.325 8.91467 118.331 8.43467 118.341 7.976C118.384 7.08 118.587 6.30667 118.949 5.656C119.323 5.00533 119.851 4.50933 120.533 4.168C121.227 3.816 122.064 3.64 123.045 3.64C123.771 3.64 124.421 3.736 124.997 3.928C125.573 4.12 126.064 4.38667 126.469 4.728C126.875 5.05867 127.189 5.448 127.413 5.896C127.637 6.344 127.755 6.82933 127.765 7.352C127.776 7.448 127.744 7.528 127.669 7.592C127.605 7.656 127.525 7.688 127.429 7.688H125.909C125.792 7.688 125.696 7.66133 125.621 7.608C125.547 7.544 125.493 7.44267 125.461 7.304C125.291 6.6 124.997 6.12 124.581 5.864C124.165 5.608 123.648 5.48 123.029 5.48C122.315 5.48 121.744 5.68267 121.317 6.088C120.891 6.48267 120.661 7.13867 120.629 8.056C120.597 8.93067 120.597 9.82667 120.629 10.744C120.661 11.6613 120.891 12.3227 121.317 12.728C121.744 13.1227 122.315 13.32 123.029 13.32C123.648 13.32 124.165 13.192 124.581 12.936C124.997 12.6693 125.291 12.1893 125.461 11.496C125.493 11.3467 125.547 11.2453 125.621 11.192C125.696 11.1387 125.792 11.112 125.909 11.112H127.429C127.525 11.112 127.605 11.144 127.669 11.208C127.744 11.272 127.776 11.352 127.765 11.448C127.755 11.9707 127.637 12.456 127.413 12.904C127.189 13.352 126.875 13.7467 126.469 14.088C126.064 14.4187 125.573 14.68 124.997 14.872C124.421 15.064 123.771 15.16 123.045 15.16ZM130.047 15C129.94 15 129.849 14.9627 129.775 14.888C129.7 14.8133 129.663 14.7227 129.663 14.616V4.184C129.663 4.07733 129.7 3.98667 129.775 3.912C129.849 3.83733 129.94 3.8 130.047 3.8H131.551C131.668 3.8 131.759 3.83733 131.823 3.912C131.897 3.98667 131.935 4.07733 131.935 4.184V14.616C131.935 14.7227 131.897 14.8133 131.823 14.888C131.759 14.9627 131.668 15 131.551 15H130.047ZM133.756 15C133.671 15 133.591 14.968 133.516 14.904C133.452 14.84 133.42 14.76 133.42 14.664C133.42 14.6213 133.431 14.5733 133.452 14.52L137.308 4.2C137.34 4.09333 137.399 4.00267 137.484 3.928C137.58 3.84267 137.708 3.8 137.868 3.8H139.612C139.772 3.8 139.895 3.84267 139.98 3.928C140.065 4.00267 140.129 4.09333 140.172 4.2L144.028 14.52C144.039 14.5733 144.044 14.6213 144.044 14.664C144.044 14.76 144.012 14.84 143.948 14.904C143.884 14.968 143.809 15 143.724 15H142.332C142.183 15 142.071 14.968 141.996 14.904C141.932 14.8293 141.889 14.76 141.868 14.696L141.116 12.744H136.364L135.612 14.696C135.591 14.76 135.543 14.8293 135.468 14.904C135.404 14.968 135.297 15 135.148 15H133.756ZM136.924 10.904H140.556L138.732 5.96L136.924 10.904ZM145.922 15C145.815 15 145.724 14.9627 145.65 14.888C145.575 14.8133 145.538 14.7227 145.538 14.616V4.184C145.538 4.07733 145.575 3.98667 145.65 3.912C145.724 3.83733 145.815 3.8 145.922 3.8H147.41C147.516 3.8 147.607 3.83733 147.682 3.912C147.756 3.98667 147.794 4.07733 147.794 4.184V13.096H152.866C152.983 13.096 153.079 13.1333 153.154 13.208C153.228 13.2827 153.266 13.3787 153.266 13.496V14.616C153.266 14.7227 153.228 14.8133 153.154 14.888C153.079 14.9627 152.983 15 152.866 15H145.922Z" fill="white"/>
<g clip-path="url(#clip0_531_655)">
<path d="M18.7523 71.8129C13.687 71.6117 9.5428 70.2256 6.3024 67.6514C5.68398 67.1596 4.21036 65.6851 3.71597 65.0632C2.40194 63.4109 1.50857 61.8029 0.912708 60.0187C-0.920861 54.5267 0.0228109 47.3199 3.61189 39.4106C6.68489 32.6392 11.4267 25.9234 19.6994 16.622C20.918 15.2533 24.547 11.2505 24.5704 11.2505C24.5791 11.2505 24.3813 11.5931 24.1324 12.0103C21.9814 15.6132 20.1409 19.8571 19.1382 23.5312C17.5276 29.4266 17.7219 34.4858 19.7072 38.4088C21.0768 41.1115 23.4247 43.4524 26.0649 44.7465C30.687 47.0111 37.454 47.1985 45.7181 45.2947C46.287 45.1628 74.481 37.6785 108.372 28.6624C142.262 19.6455 169.996 12.274 170 12.28C170.01 12.2878 91.2624 45.9842 50.3835 63.4655C43.9096 66.2332 42.1784 66.9323 39.1349 68.0009C31.3548 70.733 24.3857 72.0367 18.7523 71.8129Z" fill="white"/>
</g>
<defs>
<clipPath id="clip0_531_655">
<rect width="170" height="60.5863" fill="white" transform="translate(0 11.252)"/>
</clipPath>
</defs>
</svg>
