<svg width="161" height="128" viewBox="0 0 161 128" fill="none" xmlns="http://www.w3.org/2000/svg">
<g clip-path="url(#clip0_154_134)">
<path d="M72.6666 68.75L97.6666 50L72.6666 31.25V68.75ZM81 8.33334C58 8.33334 39.3333 27 39.3333 50C39.3333 73 58 91.6667 81 91.6667C104 91.6667 122.667 73 122.667 50C122.667 27 104 8.33334 81 8.33334ZM81 83.3333C62.625 83.3333 47.6666 68.375 47.6666 50C47.6666 31.625 62.625 16.6667 81 16.6667C99.375 16.6667 114.333 31.625 114.333 50C114.333 68.375 99.375 83.3333 81 83.3333Z" fill="white"/>
</g>
<path d="M0.64 123C0.554667 123 0.48 122.968 0.416 122.904C0.352 122.84 0.32 122.765 0.32 122.68C0.32 122.627 0.325333 122.568 0.336 122.504L4.304 112.152C4.34667 112.045 4.40533 111.96 4.48 111.896C4.55467 111.832 4.66667 111.8 4.816 111.8H5.904C6.04267 111.8 6.14933 111.832 6.224 111.896C6.30933 111.96 6.37333 112.045 6.416 112.152L10.368 122.504C10.3893 122.568 10.4 122.627 10.4 122.68C10.4 122.765 10.368 122.84 10.304 122.904C10.24 122.968 10.1653 123 10.08 123H9.264C9.136 123 9.04 122.968 8.976 122.904C8.92267 122.84 8.88533 122.781 8.864 122.728L7.984 120.456H2.736L1.856 122.728C1.84533 122.781 1.808 122.84 1.744 122.904C1.68 122.968 1.584 123 1.456 123H0.64ZM3.2 119.08H7.52L5.36 113.4L3.2 119.08ZM14.7828 123.16C14.1854 123.16 13.6734 123.085 13.2468 122.936C12.8201 122.787 12.4734 122.605 12.2068 122.392C11.9401 122.179 11.7374 121.965 11.5988 121.752C11.4708 121.539 11.4014 121.368 11.3908 121.24C11.3801 121.123 11.4174 121.032 11.5028 120.968C11.5881 120.904 11.6734 120.872 11.7588 120.872H12.4628C12.5268 120.872 12.5748 120.883 12.6068 120.904C12.6494 120.915 12.7028 120.957 12.7668 121.032C12.9054 121.181 13.0601 121.331 13.2308 121.48C13.4014 121.629 13.6094 121.752 13.8548 121.848C14.1108 121.944 14.4254 121.992 14.7988 121.992C15.3428 121.992 15.7908 121.891 16.1428 121.688C16.4948 121.475 16.6708 121.165 16.6708 120.76C16.6708 120.493 16.5961 120.28 16.4468 120.12C16.3081 119.96 16.0521 119.816 15.6788 119.688C15.3161 119.56 14.8148 119.427 14.1748 119.288C13.5348 119.139 13.0281 118.957 12.6548 118.744C12.2814 118.52 12.0148 118.259 11.8548 117.96C11.6948 117.651 11.6148 117.304 11.6148 116.92C11.6148 116.525 11.7321 116.147 11.9668 115.784C12.2014 115.411 12.5428 115.107 12.9908 114.872C13.4494 114.637 14.0201 114.52 14.7028 114.52C15.2574 114.52 15.7321 114.589 16.1268 114.728C16.5214 114.867 16.8468 115.043 17.1028 115.256C17.3588 115.459 17.5508 115.661 17.6788 115.864C17.8068 116.067 17.8761 116.237 17.8868 116.376C17.8974 116.483 17.8654 116.573 17.7908 116.648C17.7161 116.712 17.6308 116.744 17.5348 116.744H16.8628C16.7881 116.744 16.7241 116.728 16.6708 116.696C16.6281 116.664 16.5854 116.627 16.5428 116.584C16.4361 116.445 16.3081 116.307 16.1588 116.168C16.0201 116.029 15.8334 115.917 15.5988 115.832C15.3748 115.736 15.0761 115.688 14.7028 115.688C14.1694 115.688 13.7694 115.8 13.5028 116.024C13.2361 116.248 13.1028 116.531 13.1028 116.872C13.1028 117.075 13.1614 117.256 13.2788 117.416C13.3961 117.576 13.6201 117.72 13.9508 117.848C14.2814 117.976 14.7721 118.115 15.4227 118.264C16.1268 118.403 16.6814 118.589 17.0868 118.824C17.4921 119.059 17.7801 119.331 17.9508 119.64C18.1214 119.949 18.2068 120.307 18.2068 120.712C18.2068 121.16 18.0734 121.571 17.8068 121.944C17.5508 122.317 17.1668 122.616 16.6548 122.84C16.1534 123.053 15.5294 123.16 14.7828 123.16ZM22.939 123.16C22.3417 123.16 21.8297 123.085 21.403 122.936C20.9763 122.787 20.6297 122.605 20.363 122.392C20.0963 122.179 19.8937 121.965 19.755 121.752C19.627 121.539 19.5577 121.368 19.547 121.24C19.5363 121.123 19.5737 121.032 19.659 120.968C19.7443 120.904 19.8297 120.872 19.915 120.872H20.619C20.683 120.872 20.731 120.883 20.763 120.904C20.8057 120.915 20.859 120.957 20.923 121.032C21.0617 121.181 21.2163 121.331 21.387 121.48C21.5577 121.629 21.7657 121.752 22.011 121.848C22.267 121.944 22.5817 121.992 22.955 121.992C23.499 121.992 23.947 121.891 24.299 121.688C24.651 121.475 24.827 121.165 24.827 120.76C24.827 120.493 24.7523 120.28 24.603 120.12C24.4643 119.96 24.2083 119.816 23.835 119.688C23.4723 119.56 22.971 119.427 22.331 119.288C21.691 119.139 21.1843 118.957 20.811 118.744C20.4377 118.52 20.171 118.259 20.011 117.96C19.851 117.651 19.771 117.304 19.771 116.92C19.771 116.525 19.8883 116.147 20.123 115.784C20.3577 115.411 20.699 115.107 21.147 114.872C21.6057 114.637 22.1763 114.52 22.859 114.52C23.4137 114.52 23.8883 114.589 24.283 114.728C24.6777 114.867 25.003 115.043 25.259 115.256C25.515 115.459 25.707 115.661 25.835 115.864C25.963 116.067 26.0323 116.237 26.043 116.376C26.0537 116.483 26.0217 116.573 25.947 116.648C25.8723 116.712 25.787 116.744 25.691 116.744H25.019C24.9443 116.744 24.8803 116.728 24.827 116.696C24.7843 116.664 24.7417 116.627 24.699 116.584C24.5923 116.445 24.4643 116.307 24.315 116.168C24.1763 116.029 23.9897 115.917 23.755 115.832C23.531 115.736 23.2323 115.688 22.859 115.688C22.3257 115.688 21.9257 115.8 21.659 116.024C21.3923 116.248 21.259 116.531 21.259 116.872C21.259 117.075 21.3177 117.256 21.435 117.416C21.5523 117.576 21.7763 117.72 22.107 117.848C22.4377 117.976 22.9283 118.115 23.579 118.264C24.283 118.403 24.8377 118.589 25.243 118.824C25.6483 119.059 25.9363 119.331 26.107 119.64C26.2777 119.949 26.363 120.307 26.363 120.712C26.363 121.16 26.2297 121.571 25.963 121.944C25.707 122.317 25.323 122.616 24.811 122.84C24.3097 123.053 23.6857 123.16 22.939 123.16ZM28.5833 123C28.4766 123 28.3859 122.968 28.3113 122.904C28.2473 122.829 28.2153 122.739 28.2153 122.632V115.048C28.2153 114.941 28.2473 114.856 28.3113 114.792C28.3859 114.717 28.4766 114.68 28.5833 114.68H29.3513C29.4579 114.68 29.5433 114.717 29.6073 114.792C29.6713 114.856 29.7033 114.941 29.7033 115.048V122.632C29.7033 122.739 29.6713 122.829 29.6073 122.904C29.5433 122.968 29.4579 123 29.3513 123H28.5833ZM28.4553 113.128C28.3486 113.128 28.2579 113.096 28.1833 113.032C28.1193 112.957 28.0872 112.867 28.0872 112.76V111.896C28.0872 111.789 28.1193 111.704 28.1833 111.64C28.2579 111.565 28.3486 111.528 28.4553 111.528H29.4633C29.5699 111.528 29.6553 111.565 29.7193 111.64C29.7939 111.704 29.8313 111.789 29.8313 111.896V112.76C29.8313 112.867 29.7939 112.957 29.7193 113.032C29.6553 113.096 29.5699 113.128 29.4633 113.128H28.4553ZM35.064 123.16C34.4667 123.16 33.9547 123.085 33.528 122.936C33.1013 122.787 32.7547 122.605 32.488 122.392C32.2213 122.179 32.0187 121.965 31.88 121.752C31.752 121.539 31.6827 121.368 31.672 121.24C31.6613 121.123 31.6987 121.032 31.784 120.968C31.8693 120.904 31.9547 120.872 32.04 120.872H32.744C32.808 120.872 32.856 120.883 32.888 120.904C32.9307 120.915 32.984 120.957 33.048 121.032C33.1867 121.181 33.3413 121.331 33.512 121.48C33.6827 121.629 33.8907 121.752 34.136 121.848C34.392 121.944 34.7067 121.992 35.08 121.992C35.624 121.992 36.072 121.891 36.424 121.688C36.776 121.475 36.952 121.165 36.952 120.76C36.952 120.493 36.8773 120.28 36.728 120.12C36.5893 119.96 36.3333 119.816 35.96 119.688C35.5973 119.56 35.096 119.427 34.456 119.288C33.816 119.139 33.3093 118.957 32.936 118.744C32.5627 118.52 32.296 118.259 32.136 117.96C31.976 117.651 31.896 117.304 31.896 116.92C31.896 116.525 32.0133 116.147 32.248 115.784C32.4827 115.411 32.824 115.107 33.272 114.872C33.7307 114.637 34.3013 114.52 34.984 114.52C35.5387 114.52 36.0133 114.589 36.408 114.728C36.8027 114.867 37.128 115.043 37.384 115.256C37.64 115.459 37.832 115.661 37.96 115.864C38.088 116.067 38.1573 116.237 38.168 116.376C38.1787 116.483 38.1467 116.573 38.072 116.648C37.9973 116.712 37.912 116.744 37.816 116.744H37.144C37.0693 116.744 37.0053 116.728 36.952 116.696C36.9093 116.664 36.8667 116.627 36.824 116.584C36.7173 116.445 36.5893 116.307 36.44 116.168C36.3013 116.029 36.1147 115.917 35.88 115.832C35.656 115.736 35.3573 115.688 34.984 115.688C34.4507 115.688 34.0507 115.8 33.784 116.024C33.5173 116.248 33.384 116.531 33.384 116.872C33.384 117.075 33.4427 117.256 33.56 117.416C33.6773 117.576 33.9013 117.72 34.232 117.848C34.5627 117.976 35.0533 118.115 35.704 118.264C36.408 118.403 36.9627 118.589 37.368 118.824C37.7733 119.059 38.0613 119.331 38.232 119.64C38.4027 119.949 38.488 120.307 38.488 120.712C38.488 121.16 38.3547 121.571 38.088 121.944C37.832 122.317 37.448 122.616 36.936 122.84C36.4347 123.053 35.8107 123.16 35.064 123.16ZM43.5726 123C42.9753 123 42.49 122.888 42.1166 122.664C41.7433 122.429 41.4713 122.104 41.3006 121.688C41.13 121.261 41.0446 120.76 41.0446 120.184V115.96H39.7966C39.69 115.96 39.5993 115.928 39.5246 115.864C39.4606 115.789 39.4286 115.699 39.4286 115.592V115.048C39.4286 114.941 39.4606 114.856 39.5246 114.792C39.5993 114.717 39.69 114.68 39.7966 114.68H41.0446V112.008C41.0446 111.901 41.0766 111.816 41.1406 111.752C41.2153 111.677 41.306 111.64 41.4126 111.64H42.1646C42.2713 111.64 42.3566 111.677 42.4206 111.752C42.4953 111.816 42.5326 111.901 42.5326 112.008V114.68H44.5166C44.6233 114.68 44.7086 114.717 44.7726 114.792C44.8473 114.856 44.8846 114.941 44.8846 115.048V115.592C44.8846 115.699 44.8473 115.789 44.7726 115.864C44.7086 115.928 44.6233 115.96 44.5166 115.96H42.5326V120.072C42.5326 120.573 42.618 120.968 42.7886 121.256C42.9593 121.544 43.2633 121.688 43.7006 121.688H44.6766C44.7833 121.688 44.8686 121.725 44.9326 121.8C45.0073 121.864 45.0446 121.949 45.0446 122.056V122.632C45.0446 122.739 45.0073 122.829 44.9326 122.904C44.8686 122.968 44.7833 123 44.6766 123H43.5726ZM46.9426 123C46.836 123 46.7453 122.968 46.6706 122.904C46.6066 122.829 46.5746 122.739 46.5746 122.632V115.048C46.5746 114.941 46.6066 114.856 46.6706 114.792C46.7453 114.717 46.836 114.68 46.9426 114.68H47.7106C47.8173 114.68 47.9026 114.717 47.9666 114.792C48.0306 114.856 48.0626 114.941 48.0626 115.048V122.632C48.0626 122.739 48.0306 122.829 47.9666 122.904C47.9026 122.968 47.8173 123 47.7106 123H46.9426ZM46.8146 113.128C46.708 113.128 46.6173 113.096 46.5426 113.032C46.4786 112.957 46.4466 112.867 46.4466 112.76V111.896C46.4466 111.789 46.4786 111.704 46.5426 111.64C46.6173 111.565 46.708 111.528 46.8146 111.528H47.8226C47.9293 111.528 48.0146 111.565 48.0786 111.64C48.1533 111.704 48.1906 111.789 48.1906 111.896V112.76C48.1906 112.867 48.1533 112.957 48.0786 113.032C48.0146 113.096 47.9293 113.128 47.8226 113.128H46.8146ZM50.9739 123C50.8672 123 50.7765 122.968 50.7019 122.904C50.6379 122.829 50.6059 122.739 50.6059 122.632V115.064C50.6059 114.957 50.6379 114.867 50.7019 114.792C50.7765 114.717 50.8672 114.68 50.9739 114.68H51.7099C51.8165 114.68 51.9072 114.717 51.9819 114.792C52.0565 114.867 52.0939 114.957 52.0939 115.064V115.768C52.3072 115.405 52.6005 115.133 52.9739 114.952C53.3472 114.771 53.7952 114.68 54.3179 114.68H54.9579C55.0645 114.68 55.1499 114.717 55.2139 114.792C55.2779 114.856 55.3099 114.941 55.3099 115.048V115.704C55.3099 115.811 55.2779 115.896 55.2139 115.96C55.1499 116.024 55.0645 116.056 54.9579 116.056H53.9979C53.4219 116.056 52.9685 116.227 52.6379 116.568C52.3072 116.899 52.1419 117.352 52.1419 117.928V122.632C52.1419 122.739 52.1045 122.829 52.0299 122.904C51.9552 122.968 51.8645 123 51.7579 123H50.9739ZM62.5509 123.16C62.0175 123.16 61.5322 123.053 61.0949 122.84C60.6575 122.627 60.3055 122.339 60.0389 121.976C59.7722 121.613 59.6389 121.203 59.6389 120.744C59.6389 120.008 59.9375 119.421 60.5349 118.984C61.1322 118.547 61.9109 118.259 62.8709 118.12L65.2549 117.784V117.32C65.2549 116.808 65.1055 116.408 64.8069 116.12C64.5189 115.832 64.0442 115.688 63.3829 115.688C62.9029 115.688 62.5135 115.784 62.2149 115.976C61.9269 116.168 61.7242 116.413 61.6069 116.712C61.5429 116.872 61.4309 116.952 61.2709 116.952H60.5509C60.4335 116.952 60.3429 116.92 60.2789 116.856C60.2255 116.781 60.1989 116.696 60.1989 116.6C60.1989 116.44 60.2575 116.243 60.3749 116.008C60.5029 115.773 60.6949 115.544 60.9509 115.32C61.2069 115.096 61.5322 114.909 61.9269 114.76C62.3322 114.6 62.8229 114.52 63.3989 114.52C64.0389 114.52 64.5775 114.605 65.0149 114.776C65.4522 114.936 65.7935 115.155 66.0389 115.432C66.2949 115.709 66.4762 116.024 66.5829 116.376C66.7002 116.728 66.7589 117.085 66.7589 117.448V122.632C66.7589 122.739 66.7215 122.829 66.6469 122.904C66.5829 122.968 66.4975 123 66.3909 123H65.6549C65.5375 123 65.4469 122.968 65.3829 122.904C65.3189 122.829 65.2869 122.739 65.2869 122.632V121.944C65.1482 122.136 64.9615 122.328 64.7269 122.52C64.4922 122.701 64.1989 122.856 63.8469 122.984C63.4949 123.101 63.0629 123.16 62.5509 123.16ZM62.8869 121.96C63.3242 121.96 63.7242 121.869 64.0869 121.688C64.4495 121.496 64.7322 121.203 64.9349 120.808C65.1482 120.413 65.2549 119.917 65.2549 119.32V118.872L63.3989 119.144C62.6415 119.251 62.0709 119.432 61.6869 119.688C61.3029 119.933 61.1109 120.248 61.1109 120.632C61.1109 120.931 61.1962 121.181 61.3669 121.384C61.5482 121.576 61.7722 121.72 62.0389 121.816C62.3162 121.912 62.5989 121.96 62.8869 121.96ZM69.443 126.04C69.3363 126.04 69.2457 126.003 69.171 125.928C69.107 125.864 69.075 125.779 69.075 125.672V115.048C69.075 114.941 69.107 114.856 69.171 114.792C69.2457 114.717 69.3363 114.68 69.443 114.68H70.179C70.2857 114.68 70.371 114.717 70.435 114.792C70.5097 114.856 70.547 114.941 70.547 115.048V115.752C70.803 115.4 71.1443 115.107 71.571 114.872C71.9977 114.637 72.531 114.52 73.171 114.52C73.7683 114.52 74.275 114.621 74.691 114.824C75.1177 115.027 75.4643 115.304 75.731 115.656C76.0083 116.008 76.2163 116.408 76.355 116.856C76.4937 117.304 76.5683 117.784 76.579 118.296C76.5897 118.467 76.595 118.648 76.595 118.84C76.595 119.032 76.5897 119.213 76.579 119.384C76.5683 119.885 76.4937 120.365 76.355 120.824C76.2163 121.272 76.0083 121.672 75.731 122.024C75.4643 122.365 75.1177 122.643 74.691 122.856C74.275 123.059 73.7683 123.16 73.171 123.16C72.5523 123.16 72.0297 123.048 71.603 122.824C71.187 122.589 70.8457 122.301 70.579 121.96V125.672C70.579 125.779 70.547 125.864 70.483 125.928C70.419 126.003 70.3283 126.04 70.211 126.04H69.443ZM72.835 121.864C73.3897 121.864 73.8217 121.747 74.131 121.512C74.451 121.267 74.6803 120.952 74.819 120.568C74.9577 120.173 75.0377 119.752 75.059 119.304C75.0697 118.995 75.0697 118.685 75.059 118.376C75.0377 117.928 74.9577 117.512 74.819 117.128C74.6803 116.733 74.451 116.419 74.131 116.184C73.8217 115.939 73.3897 115.816 72.835 115.816C72.3123 115.816 71.8857 115.939 71.555 116.184C71.235 116.429 70.995 116.744 70.835 117.128C70.6857 117.501 70.6003 117.885 70.579 118.28C70.5683 118.451 70.563 118.653 70.563 118.888C70.563 119.123 70.5683 119.331 70.579 119.512C70.5897 119.885 70.675 120.253 70.835 120.616C71.0057 120.979 71.2563 121.277 71.587 121.512C71.9177 121.747 72.3337 121.864 72.835 121.864ZM78.9583 123C78.8516 123 78.7609 122.968 78.6863 122.904C78.6223 122.829 78.5903 122.739 78.5903 122.632V115.064C78.5903 114.957 78.6223 114.867 78.6863 114.792C78.7609 114.717 78.8516 114.68 78.9583 114.68H79.6943C79.8009 114.68 79.8916 114.717 79.9663 114.792C80.0409 114.867 80.0783 114.957 80.0783 115.064V115.768C80.2916 115.405 80.5849 115.133 80.9583 114.952C81.3316 114.771 81.7796 114.68 82.3023 114.68H82.9423C83.0489 114.68 83.1343 114.717 83.1983 114.792C83.2623 114.856 83.2943 114.941 83.2943 115.048V115.704C83.2943 115.811 83.2623 115.896 83.1983 115.96C83.1343 116.024 83.0489 116.056 82.9423 116.056H81.9823C81.4063 116.056 80.9529 116.227 80.6223 116.568C80.2916 116.899 80.1263 117.352 80.1263 117.928V122.632C80.1263 122.739 80.0889 122.829 80.0143 122.904C79.9396 122.968 79.8489 123 79.7423 123H78.9583ZM87.8241 123.16C86.7255 123.16 85.8508 122.824 85.2001 122.152C84.5495 121.469 84.1921 120.541 84.1281 119.368C84.1175 119.229 84.1121 119.053 84.1121 118.84C84.1121 118.616 84.1175 118.435 84.1281 118.296C84.1708 117.539 84.3468 116.877 84.6561 116.312C84.9655 115.736 85.3868 115.293 85.9201 114.984C86.4641 114.675 87.0988 114.52 87.8241 114.52C88.6348 114.52 89.3121 114.691 89.8561 115.032C90.4108 115.373 90.8321 115.859 91.1201 116.488C91.4081 117.117 91.5521 117.853 91.5521 118.696V118.968C91.5521 119.085 91.5148 119.176 91.4401 119.24C91.3761 119.304 91.2908 119.336 91.1841 119.336H85.6481C85.6481 119.347 85.6481 119.368 85.6481 119.4C85.6481 119.432 85.6481 119.459 85.6481 119.48C85.6695 119.917 85.7655 120.328 85.9361 120.712C86.1068 121.085 86.3521 121.389 86.6721 121.624C86.9921 121.859 87.3761 121.976 87.8241 121.976C88.2081 121.976 88.5281 121.917 88.7841 121.8C89.0401 121.683 89.2481 121.555 89.4081 121.416C89.5681 121.267 89.6748 121.155 89.7281 121.08C89.8241 120.941 89.8988 120.861 89.9521 120.84C90.0055 120.808 90.0908 120.792 90.2081 120.792H90.9761C91.0828 120.792 91.1681 120.824 91.2321 120.888C91.3068 120.941 91.3388 121.021 91.3281 121.128C91.3175 121.288 91.2321 121.485 91.0721 121.72C90.9121 121.944 90.6828 122.168 90.3841 122.392C90.0855 122.616 89.7228 122.803 89.2961 122.952C88.8695 123.091 88.3788 123.16 87.8241 123.16ZM85.6481 118.232H90.0321V118.184C90.0321 117.704 89.9415 117.277 89.7601 116.904C89.5895 116.531 89.3388 116.237 89.0081 116.024C88.6775 115.8 88.2828 115.688 87.8241 115.688C87.3655 115.688 86.9708 115.8 86.6401 116.024C86.3201 116.237 86.0748 116.531 85.9041 116.904C85.7335 117.277 85.6481 117.704 85.6481 118.184V118.232ZM96.3453 123.16C95.7479 123.16 95.2359 123.085 94.8093 122.936C94.3826 122.787 94.0359 122.605 93.7693 122.392C93.5026 122.179 93.2999 121.965 93.1613 121.752C93.0333 121.539 92.9639 121.368 92.9533 121.24C92.9426 121.123 92.9799 121.032 93.0653 120.968C93.1506 120.904 93.2359 120.872 93.3213 120.872H94.0253C94.0893 120.872 94.1373 120.883 94.1693 120.904C94.2119 120.915 94.2653 120.957 94.3293 121.032C94.4679 121.181 94.6226 121.331 94.7933 121.48C94.9639 121.629 95.1719 121.752 95.4173 121.848C95.6733 121.944 95.9879 121.992 96.3613 121.992C96.9053 121.992 97.3533 121.891 97.7053 121.688C98.0573 121.475 98.2333 121.165 98.2333 120.76C98.2333 120.493 98.1586 120.28 98.0093 120.12C97.8706 119.96 97.6146 119.816 97.2413 119.688C96.8786 119.56 96.3773 119.427 95.7373 119.288C95.0973 119.139 94.5906 118.957 94.2173 118.744C93.8439 118.52 93.5773 118.259 93.4173 117.96C93.2573 117.651 93.1773 117.304 93.1773 116.92C93.1773 116.525 93.2946 116.147 93.5293 115.784C93.7639 115.411 94.1053 115.107 94.5533 114.872C95.0119 114.637 95.5826 114.52 96.2653 114.52C96.8199 114.52 97.2946 114.589 97.6893 114.728C98.0839 114.867 98.4093 115.043 98.6653 115.256C98.9213 115.459 99.1133 115.661 99.2413 115.864C99.3693 116.067 99.4386 116.237 99.4493 116.376C99.4599 116.483 99.4279 116.573 99.3533 116.648C99.2786 116.712 99.1933 116.744 99.0973 116.744H98.4253C98.3506 116.744 98.2866 116.728 98.2333 116.696C98.1906 116.664 98.1479 116.627 98.1053 116.584C97.9986 116.445 97.8706 116.307 97.7213 116.168C97.5826 116.029 97.3959 115.917 97.1613 115.832C96.9373 115.736 96.6386 115.688 96.2653 115.688C95.7319 115.688 95.3319 115.8 95.0653 116.024C94.7986 116.248 94.6653 116.531 94.6653 116.872C94.6653 117.075 94.7239 117.256 94.8413 117.416C94.9586 117.576 95.1826 117.72 95.5133 117.848C95.8439 117.976 96.3346 118.115 96.9852 118.264C97.6893 118.403 98.2439 118.589 98.6493 118.824C99.0546 119.059 99.3426 119.331 99.5133 119.64C99.6839 119.949 99.7693 120.307 99.7693 120.712C99.7693 121.16 99.6359 121.571 99.3693 121.944C99.1133 122.317 98.7293 122.616 98.2173 122.84C97.7159 123.053 97.0919 123.16 96.3453 123.16ZM104.934 123.16C103.835 123.16 102.96 122.824 102.31 122.152C101.659 121.469 101.302 120.541 101.238 119.368C101.227 119.229 101.222 119.053 101.222 118.84C101.222 118.616 101.227 118.435 101.238 118.296C101.28 117.539 101.456 116.877 101.766 116.312C102.075 115.736 102.496 115.293 103.03 114.984C103.574 114.675 104.208 114.52 104.934 114.52C105.744 114.52 106.422 114.691 106.966 115.032C107.52 115.373 107.942 115.859 108.23 116.488C108.518 117.117 108.661 117.853 108.661 118.696V118.968C108.661 119.085 108.624 119.176 108.55 119.24C108.486 119.304 108.4 119.336 108.294 119.336H102.758C102.758 119.347 102.758 119.368 102.758 119.4C102.758 119.432 102.758 119.459 102.758 119.48C102.779 119.917 102.875 120.328 103.046 120.712C103.216 121.085 103.462 121.389 103.782 121.624C104.102 121.859 104.486 121.976 104.934 121.976C105.318 121.976 105.638 121.917 105.894 121.8C106.15 121.683 106.358 121.555 106.518 121.416C106.678 121.267 106.784 121.155 106.838 121.08C106.934 120.941 107.008 120.861 107.062 120.84C107.115 120.808 107.2 120.792 107.318 120.792H108.086C108.192 120.792 108.278 120.824 108.342 120.888C108.416 120.941 108.448 121.021 108.438 121.128C108.427 121.288 108.342 121.485 108.182 121.72C108.022 121.944 107.792 122.168 107.494 122.392C107.195 122.616 106.832 122.803 106.406 122.952C105.979 123.091 105.488 123.16 104.934 123.16ZM102.758 118.232H107.142V118.184C107.142 117.704 107.051 117.277 106.87 116.904C106.699 116.531 106.448 116.237 106.118 116.024C105.787 115.8 105.392 115.688 104.934 115.688C104.475 115.688 104.08 115.8 103.75 116.024C103.43 116.237 103.184 116.531 103.014 116.904C102.843 117.277 102.758 117.704 102.758 118.184V118.232ZM110.943 123C110.836 123 110.745 122.968 110.671 122.904C110.607 122.829 110.575 122.739 110.575 122.632V115.048C110.575 114.941 110.607 114.856 110.671 114.792C110.745 114.717 110.836 114.68 110.943 114.68H111.695C111.801 114.68 111.887 114.717 111.951 114.792C112.025 114.856 112.063 114.941 112.063 115.048V115.752C112.34 115.389 112.687 115.096 113.103 114.872C113.529 114.637 114.073 114.52 114.735 114.52C115.428 114.52 116.015 114.675 116.495 114.984C116.985 115.283 117.353 115.704 117.599 116.248C117.844 116.781 117.967 117.405 117.967 118.12V122.632C117.967 122.739 117.935 122.829 117.871 122.904C117.807 122.968 117.721 123 117.615 123H116.815C116.708 123 116.617 122.968 116.543 122.904C116.479 122.829 116.447 122.739 116.447 122.632V118.2C116.447 117.453 116.265 116.872 115.903 116.456C115.54 116.029 115.007 115.816 114.303 115.816C113.641 115.816 113.108 116.029 112.703 116.456C112.308 116.872 112.111 117.453 112.111 118.2V122.632C112.111 122.739 112.073 122.829 111.999 122.904C111.935 122.968 111.849 123 111.743 123H110.943ZM123.416 123C122.819 123 122.334 122.888 121.96 122.664C121.587 122.429 121.315 122.104 121.144 121.688C120.974 121.261 120.888 120.76 120.888 120.184V115.96H119.64C119.534 115.96 119.443 115.928 119.368 115.864C119.304 115.789 119.272 115.699 119.272 115.592V115.048C119.272 114.941 119.304 114.856 119.368 114.792C119.443 114.717 119.534 114.68 119.64 114.68H120.888V112.008C120.888 111.901 120.92 111.816 120.984 111.752C121.059 111.677 121.15 111.64 121.256 111.64H122.008C122.115 111.64 122.2 111.677 122.264 111.752C122.339 111.816 122.376 111.901 122.376 112.008V114.68H124.36C124.467 114.68 124.552 114.717 124.616 114.792C124.691 114.856 124.728 114.941 124.728 115.048V115.592C124.728 115.699 124.691 115.789 124.616 115.864C124.552 115.928 124.467 115.96 124.36 115.96H122.376V120.072C122.376 120.573 122.462 120.968 122.632 121.256C122.803 121.544 123.107 121.688 123.544 121.688H124.52C124.627 121.688 124.712 121.725 124.776 121.8C124.851 121.864 124.888 121.949 124.888 122.056V122.632C124.888 122.739 124.851 122.829 124.776 122.904C124.712 122.968 124.627 123 124.52 123H123.416ZM128.738 123.16C128.205 123.16 127.72 123.053 127.282 122.84C126.845 122.627 126.493 122.339 126.226 121.976C125.96 121.613 125.826 121.203 125.826 120.744C125.826 120.008 126.125 119.421 126.722 118.984C127.32 118.547 128.098 118.259 129.058 118.12L131.442 117.784V117.32C131.442 116.808 131.293 116.408 130.994 116.12C130.706 115.832 130.232 115.688 129.57 115.688C129.09 115.688 128.701 115.784 128.402 115.976C128.114 116.168 127.912 116.413 127.794 116.712C127.73 116.872 127.618 116.952 127.458 116.952H126.738C126.621 116.952 126.53 116.92 126.466 116.856C126.413 116.781 126.386 116.696 126.386 116.6C126.386 116.44 126.445 116.243 126.562 116.008C126.69 115.773 126.882 115.544 127.138 115.32C127.394 115.096 127.72 114.909 128.114 114.76C128.52 114.6 129.01 114.52 129.586 114.52C130.226 114.52 130.765 114.605 131.202 114.776C131.64 114.936 131.981 115.155 132.226 115.432C132.482 115.709 132.664 116.024 132.77 116.376C132.888 116.728 132.946 117.085 132.946 117.448V122.632C132.946 122.739 132.909 122.829 132.834 122.904C132.77 122.968 132.685 123 132.578 123H131.842C131.725 123 131.634 122.968 131.57 122.904C131.506 122.829 131.474 122.739 131.474 122.632V121.944C131.336 122.136 131.149 122.328 130.914 122.52C130.68 122.701 130.386 122.856 130.034 122.984C129.682 123.101 129.25 123.16 128.738 123.16ZM129.074 121.96C129.512 121.96 129.912 121.869 130.274 121.688C130.637 121.496 130.92 121.203 131.122 120.808C131.336 120.413 131.442 119.917 131.442 119.32V118.872L129.586 119.144C128.829 119.251 128.258 119.432 127.874 119.688C127.49 119.933 127.298 120.248 127.298 120.632C127.298 120.931 127.384 121.181 127.554 121.384C127.736 121.576 127.96 121.72 128.226 121.816C128.504 121.912 128.786 121.96 129.074 121.96ZM138.575 126.52C138.276 126.509 138.009 126.456 137.775 126.36C137.551 126.264 137.385 126.152 137.279 126.024C137.183 125.896 137.183 125.789 137.279 125.704L137.519 125.48C137.615 125.395 137.7 125.373 137.775 125.416C137.849 125.469 137.945 125.533 138.062 125.608C138.18 125.683 138.351 125.72 138.575 125.72C138.745 125.72 138.895 125.667 139.023 125.56C139.151 125.453 139.215 125.309 139.215 125.128C139.215 124.957 139.151 124.819 139.023 124.712C138.895 124.616 138.745 124.568 138.575 124.568C138.415 124.568 138.276 124.589 138.159 124.632C138.052 124.675 137.956 124.701 137.871 124.712C137.796 124.733 137.716 124.701 137.631 124.616L137.359 124.328C137.305 124.264 137.289 124.189 137.311 124.104C137.343 124.019 137.38 123.933 137.423 123.848L137.743 123.08C136.868 122.931 136.18 122.547 135.679 121.928C135.188 121.299 134.927 120.483 134.895 119.48C134.884 119.32 134.879 119.107 134.879 118.84C134.879 118.573 134.884 118.36 134.895 118.2C134.916 117.432 135.076 116.776 135.375 116.232C135.673 115.677 136.095 115.256 136.639 114.968C137.193 114.669 137.849 114.52 138.607 114.52C139.225 114.52 139.753 114.605 140.191 114.776C140.639 114.947 141.007 115.165 141.295 115.432C141.583 115.699 141.796 115.987 141.935 116.296C142.084 116.605 142.164 116.899 142.175 117.176C142.185 117.283 142.153 117.368 142.079 117.432C142.004 117.496 141.913 117.528 141.807 117.528H141.039C140.932 117.528 140.852 117.507 140.799 117.464C140.745 117.411 140.692 117.325 140.639 117.208C140.447 116.685 140.185 116.317 139.855 116.104C139.524 115.891 139.113 115.784 138.623 115.784C137.983 115.784 137.46 115.981 137.055 116.376C136.66 116.771 136.447 117.405 136.414 118.28C136.404 118.664 136.404 119.037 136.414 119.4C136.447 120.285 136.66 120.925 137.055 121.32C137.46 121.704 137.983 121.896 138.623 121.896C139.113 121.896 139.524 121.789 139.855 121.576C140.185 121.363 140.447 120.995 140.639 120.472C140.692 120.355 140.745 120.275 140.799 120.232C140.852 120.179 140.932 120.152 141.039 120.152H141.807C141.913 120.152 142.004 120.184 142.079 120.248C142.153 120.312 142.185 120.397 142.175 120.504C142.164 120.771 142.084 121.059 141.935 121.368C141.796 121.677 141.588 121.965 141.311 122.232C141.033 122.499 140.671 122.723 140.223 122.904C139.785 123.075 139.252 123.16 138.623 123.16L138.271 123.896C138.335 123.853 138.42 123.821 138.527 123.8C138.644 123.779 138.756 123.768 138.863 123.768C139.225 123.768 139.519 123.891 139.743 124.136C139.977 124.392 140.095 124.717 140.095 125.112C140.095 125.496 139.961 125.827 139.695 126.104C139.439 126.392 139.065 126.531 138.575 126.52ZM146.395 123.16C145.861 123.16 145.376 123.053 144.939 122.84C144.501 122.627 144.149 122.339 143.883 121.976C143.616 121.613 143.483 121.203 143.483 120.744C143.483 120.008 143.781 119.421 144.379 118.984C144.976 118.547 145.755 118.259 146.715 118.12L149.099 117.784V117.32C149.099 116.808 148.949 116.408 148.651 116.12C148.363 115.832 147.888 115.688 147.227 115.688C146.747 115.688 146.357 115.784 146.059 115.976C145.771 116.168 145.568 116.413 145.451 116.712C145.387 116.872 145.275 116.952 145.115 116.952H144.395C144.277 116.952 144.187 116.92 144.123 116.856C144.069 116.781 144.043 116.696 144.043 116.6C144.043 116.44 144.101 116.243 144.219 116.008C144.347 115.773 144.539 115.544 144.795 115.32C145.051 115.096 145.376 114.909 145.771 114.76C146.176 114.6 146.667 114.52 147.243 114.52C147.883 114.52 148.421 114.605 148.859 114.776C149.296 114.936 149.637 115.155 149.883 115.432C150.139 115.709 150.32 116.024 150.427 116.376C150.544 116.728 150.603 117.085 150.603 117.448V122.632C150.603 122.739 150.565 122.829 150.491 122.904C150.427 122.968 150.341 123 150.235 123H149.499C149.381 123 149.291 122.968 149.227 122.904C149.163 122.829 149.131 122.739 149.131 122.632V121.944C148.992 122.136 148.805 122.328 148.571 122.52C148.336 122.701 148.043 122.856 147.691 122.984C147.339 123.101 146.907 123.16 146.395 123.16ZM146.731 121.96C147.168 121.96 147.568 121.869 147.931 121.688C148.293 121.496 148.576 121.203 148.779 120.808C148.992 120.413 149.099 119.917 149.099 119.32V118.872L147.243 119.144C146.485 119.251 145.915 119.432 145.531 119.688C145.147 119.933 144.955 120.248 144.955 120.632C144.955 120.931 145.04 121.181 145.211 121.384C145.392 121.576 145.616 121.72 145.883 121.816C146.16 121.912 146.443 121.96 146.731 121.96ZM148.075 113.56C147.808 113.56 147.595 113.517 147.435 113.432C147.275 113.336 147.125 113.245 146.987 113.16C146.859 113.064 146.709 113.016 146.539 113.016C146.421 113.016 146.331 113.053 146.267 113.128C146.213 113.203 146.16 113.283 146.107 113.368C146.064 113.443 145.984 113.48 145.867 113.48H145.355C145.28 113.48 145.216 113.453 145.163 113.4C145.109 113.347 145.083 113.288 145.083 113.224C145.083 113.064 145.109 112.904 145.163 112.744C145.227 112.573 145.317 112.419 145.435 112.28C145.552 112.131 145.691 112.013 145.851 111.928C146.021 111.843 146.208 111.8 146.411 111.8C146.688 111.8 146.907 111.848 147.067 111.944C147.227 112.029 147.376 112.12 147.515 112.216C147.653 112.301 147.797 112.344 147.947 112.344C148.085 112.344 148.181 112.307 148.235 112.232C148.288 112.147 148.336 112.067 148.379 111.992C148.432 111.907 148.517 111.864 148.635 111.864H149.147C149.232 111.864 149.296 111.891 149.339 111.944C149.392 111.997 149.419 112.061 149.419 112.136C149.419 112.285 149.387 112.445 149.323 112.616C149.269 112.787 149.184 112.947 149.067 113.096C148.949 113.235 148.805 113.347 148.635 113.432C148.475 113.517 148.288 113.56 148.075 113.56ZM156.311 123.16C155.5 123.16 154.823 123.005 154.279 122.696C153.735 122.387 153.319 121.96 153.031 121.416C152.743 120.861 152.583 120.232 152.551 119.528C152.54 119.347 152.535 119.117 152.535 118.84C152.535 118.552 152.54 118.323 152.551 118.152C152.583 117.437 152.743 116.808 153.031 116.264C153.329 115.72 153.751 115.293 154.295 114.984C154.839 114.675 155.511 114.52 156.311 114.52C157.111 114.52 157.783 114.675 158.327 114.984C158.871 115.293 159.287 115.72 159.575 116.264C159.873 116.808 160.039 117.437 160.071 118.152C160.081 118.323 160.087 118.552 160.087 118.84C160.087 119.117 160.081 119.347 160.071 119.528C160.039 120.232 159.879 120.861 159.591 121.416C159.303 121.96 158.887 122.387 158.343 122.696C157.799 123.005 157.121 123.16 156.311 123.16ZM156.311 121.928C156.972 121.928 157.5 121.72 157.895 121.304C158.289 120.877 158.503 120.259 158.535 119.448C158.545 119.288 158.551 119.085 158.551 118.84C158.551 118.595 158.545 118.392 158.535 118.232C158.503 117.421 158.289 116.808 157.895 116.392C157.5 115.965 156.972 115.752 156.311 115.752C155.649 115.752 155.116 115.965 154.711 116.392C154.316 116.808 154.108 117.421 154.087 118.232C154.076 118.392 154.071 118.595 154.071 118.84C154.071 119.085 154.076 119.288 154.087 119.448C154.108 120.259 154.316 120.877 154.711 121.304C155.116 121.72 155.649 121.928 156.311 121.928Z" fill="white"/>
<defs>
<clipPath id="clip0_154_134">
<rect width="100" height="100" fill="white" transform="translate(31)"/>
</clipPath>
</defs>
</svg>
