<svg width="280" height="55" viewBox="0 0 280 55" fill="none" xmlns="http://www.w3.org/2000/svg">
<path d="M11.4532 47.4068H15.866C17.1798 47.3823 18.3251 46.9656 19.1672 46.2302C20.0094 45.4948 20.481 44.4653 20.5147 43.2152V31.2777C20.5147 30.0521 20.0767 29.0471 19.2009 28.2872C18.3588 27.5274 17.1798 27.1352 15.765 27.1352H11.4532C11.2511 27.1352 11.1163 27.2332 11.1163 27.3803V47.1617C11.1163 47.3087 11.2511 47.4068 11.4532 47.4068ZM0.269486 54.1231C0.101057 54.0006 0 53.878 0 53.7309V20.811C0 20.6639 0.0336856 20.4923 0.269486 20.4188C0.437915 20.2962 0.606344 20.2227 0.808459 20.2227H15.7313C18.8977 20.2227 21.66 20.6639 24.0854 21.4973C26.5107 22.3308 28.3635 23.5319 29.6772 25.0516C30.9909 26.5959 31.6647 28.3608 31.6647 30.3708V44.1957C31.6647 46.2057 31.0246 47.9951 29.6772 49.5148C28.3635 51.0591 26.5107 52.2357 24.0854 53.0691C21.66 53.9025 18.8641 54.3438 15.7313 54.3438H0.808459C0.606344 54.3438 0.370544 54.3438 0.269486 54.2212V54.1231Z" fill="white"/>
<path d="M65.9569 26.9632C65.7885 27.0857 65.6201 27.1593 65.418 27.1593H48.1708C47.9687 27.1593 47.834 27.2573 47.834 27.4044V33.4834C47.834 33.6305 47.9687 33.7286 48.1708 33.7286H58.6134C58.8155 33.7286 59.0513 33.8021 59.1524 33.9247C59.2535 34.0472 59.4219 34.1698 59.4219 34.3169V40.0772C59.4219 40.2243 59.3208 40.3959 59.1524 40.4694C58.984 40.543 58.8155 40.6655 58.6134 40.6655H48.1708C47.9687 40.6655 47.834 40.7636 47.834 40.9107V47.1368C47.834 47.2838 47.9687 47.3819 48.1708 47.3819H65.418C65.6201 47.3819 65.8559 47.4554 65.9569 47.578C66.058 47.7005 66.2264 47.8231 66.2264 47.9702V53.7306C66.2264 53.8776 66.1254 54.0492 65.9569 54.1228C65.7885 54.1963 65.6201 54.3188 65.418 54.3188H37.5261C37.324 54.3188 37.0882 54.2943 36.9871 54.1228C36.8187 54.0002 36.7176 53.8776 36.7176 53.7306V20.8106C36.7176 20.6635 36.7513 20.492 36.9871 20.4184C37.1556 20.2959 37.324 20.2223 37.5261 20.2223H65.418C65.6201 20.2223 65.8559 20.2959 65.9569 20.4184C66.0917 20.541 66.2264 20.6635 66.2264 20.8106V26.571C66.2264 26.7181 66.1254 26.8896 65.9569 26.9632Z" fill="white"/>
<path d="M125.918 46.3776C126.76 45.7648 127.164 44.8333 127.164 43.6567C127.164 42.4801 126.726 41.6222 125.918 40.9604C125.109 40.323 123.964 40.0044 122.515 40.0044H117.9C117.698 40.0044 117.564 40.1024 117.564 40.2495V47.0639C117.564 47.211 117.698 47.309 117.9 47.309H122.482C123.93 47.309 125.076 46.9904 125.918 46.3531V46.3776ZM117.564 27.3806V33.5577C117.564 33.7047 117.698 33.8028 117.9 33.8028H121.842C123.425 33.8028 124.604 33.4841 125.412 32.9449C126.255 32.3811 126.659 31.5477 126.659 30.4691C126.659 29.3906 126.221 28.5817 125.379 27.9934C124.537 27.4051 123.358 27.0864 121.875 27.0864H117.934C117.732 27.0864 117.597 27.1845 117.597 27.3316L117.564 27.3806ZM133.969 51.8438C131.139 53.4861 127.434 54.2705 122.953 54.2705H107.323C107.121 54.2705 106.885 54.246 106.784 54.0744C106.616 53.9518 106.515 53.8293 106.515 53.6822V20.7868C106.515 20.6397 106.548 20.4681 106.784 20.3946C106.953 20.272 107.121 20.1985 107.323 20.1985H121.808C126.827 20.1985 130.768 20.9584 133.43 22.5026C136.158 24.0469 137.539 26.4246 137.539 29.6847C137.539 32.9449 135.956 35.0774 132.891 36.4991C132.587 36.5972 132.587 36.7197 132.857 36.8178C136.495 38.5091 138.314 41.1319 138.314 44.6862C138.314 48.2405 136.866 50.275 134.036 51.8683V51.7948L133.969 51.8438Z" fill="white"/>
<path d="M154.146 27.3805V34.2929C154.146 34.44 154.281 34.538 154.483 34.538H159.132C160.58 34.538 161.726 34.2194 162.568 33.5821C163.41 32.9448 163.881 32.0378 163.881 30.8857C163.881 29.7337 163.444 28.8267 162.568 28.1404C161.726 27.503 160.547 27.1599 159.132 27.1599H154.483C154.281 27.1599 154.146 27.2579 154.146 27.405V27.3805ZM163.78 53.8292L157.515 40.9357C157.414 40.8132 157.346 40.7151 157.178 40.7151H154.517C154.315 40.7151 154.18 40.8132 154.18 40.9603V53.7066C154.18 53.8537 154.079 54.0253 153.91 54.0988C153.742 54.1724 153.574 54.2949 153.372 54.2949H143.872C143.67 54.2949 143.434 54.2704 143.333 54.0988C143.165 53.9763 143.064 53.8537 143.064 53.7066V20.8112C143.064 20.6641 143.097 20.4925 143.333 20.419C143.502 20.2964 143.67 20.2229 143.872 20.2229H161.018C163.78 20.2229 166.239 20.6886 168.362 21.5466C170.484 22.4535 172.101 23.6791 173.28 25.2724C174.425 26.8412 175.031 28.7041 175.031 30.7632C175.031 32.8222 174.425 34.5871 173.246 36.1068C172 37.6511 170.349 38.8032 168.227 39.5631C168.059 39.5631 168.025 39.6856 168.092 39.8817L175.402 53.6086C175.402 53.6821 175.436 53.7311 175.436 53.8537C175.436 54.1724 175.166 54.2949 174.661 54.2949H164.69C164.218 54.2949 163.915 54.1724 163.848 53.8292H163.814H163.78Z" fill="white"/>
<path d="M193.626 43.0435H200.801C200.902 43.0435 200.97 43.0435 201.104 42.97C201.205 42.9455 201.239 42.8474 201.138 42.7494L197.399 30.6893C197.399 30.5668 197.264 30.4687 197.23 30.4687C197.129 30.4687 197.062 30.5423 197.062 30.6893L193.357 42.8229C193.323 42.97 193.357 43.068 193.66 43.068H193.626V43.0435ZM204.608 53.7554L203.294 49.4657C203.294 49.3432 203.125 49.2451 202.957 49.2451H191.639C191.47 49.2451 191.335 49.3186 191.302 49.4657L189.988 53.7554C189.887 54.123 189.617 54.3191 189.146 54.3191H179.31C178.703 54.3191 178.501 54.0985 178.636 53.7063L190.594 20.7619C190.729 20.4432 191.032 20.2716 191.537 20.2716H203.226C203.732 20.2716 204.035 20.4187 204.17 20.7619L216.128 53.7063V53.9269C216.162 54.2456 215.96 54.3682 215.454 54.3682H205.517C205.012 54.3682 204.742 54.1476 204.675 53.8044H204.641L204.608 53.7554Z" fill="white"/>
<path d="M223.27 53.8293L211.783 20.8848V20.6642C211.783 20.3456 212.052 20.223 212.558 20.223H222.865C223.371 20.223 223.64 20.4191 223.708 20.7868L229.468 41.5732C229.468 41.6712 229.603 41.6957 229.636 41.6957C229.737 41.6957 229.805 41.6712 229.805 41.5732L235.397 20.7868C235.397 20.4191 235.733 20.223 236.239 20.223H246.277C246.917 20.223 247.119 20.4436 247.052 20.8358L235.43 53.7803C235.296 54.0989 234.992 54.2705 234.487 54.2705H224.179C223.674 54.2705 223.337 54.0744 223.202 53.7803H223.236L223.27 53.8293Z" fill="white"/>
<path d="M257.494 43.0435H264.669C264.77 43.0435 264.838 43.0435 264.972 42.97C265.073 42.9455 265.107 42.8474 265.006 42.7494L261.267 30.6893C261.267 30.5668 261.132 30.4687 261.099 30.4687C260.998 30.4687 260.93 30.5423 260.93 30.6893L257.225 42.8229C257.191 42.97 257.258 43.068 257.528 43.068H257.494V43.0435ZM268.476 53.7554L267.162 49.4657C267.162 49.3432 266.994 49.2451 266.825 49.2451H255.507C255.338 49.2451 255.204 49.3186 255.17 49.4657L253.856 53.7554C253.755 54.123 253.486 54.3191 253.014 54.3191H243.178C242.571 54.3191 242.369 54.0985 242.504 53.7063L254.462 20.7619C254.597 20.4432 254.9 20.2716 255.406 20.2716H267.095C267.6 20.2716 267.903 20.4187 268.038 20.7619L279.996 53.7063V53.9269C280.03 54.2456 279.828 54.3682 279.323 54.3682H269.352C268.88 54.3682 268.577 54.1476 268.509 53.8044L268.476 53.7554Z" fill="white"/>
<path d="M103.483 27.1354C103.685 27.1354 103.921 27.0618 104.022 26.9393C104.157 26.8167 104.291 26.6941 104.291 26.5471V20.7867C104.291 20.6396 104.19 20.468 104.022 20.3945C103.853 20.321 103.685 20.1984 103.483 20.1984H91.0528C90.0422 20.1984 89.0317 20.2964 87.9874 20.5171C85.6968 20.9828 83.6083 21.9388 81.7892 23.4095C80.0039 24.8802 78.8922 26.4735 78.5217 28.1649C78.1512 29.8562 78.2185 31.4985 78.7912 33.0673C79.2965 34.6116 80.1049 36.401 81.1155 38.3865C81.9577 40.1023 82.9682 42.2104 83.2714 42.9212C83.5746 43.6321 83.743 44.3184 83.7093 44.9067C83.7093 45.495 83.3725 46.0588 82.8335 46.4755C82.1598 47.0393 81.2503 47.3334 80.2734 47.3825H69.0897C68.8876 47.3825 68.6518 47.456 68.5507 47.5786C68.4496 47.7011 68.2812 47.8237 68.2812 47.9708V53.7066C68.2812 53.8537 68.3823 54.0253 68.5507 54.0988C68.7191 54.1724 68.8876 54.2949 69.0897 54.2949H81.5197C85.0231 54.2949 88.1895 53.1919 90.8507 50.9613C92.4339 49.6866 93.3435 48.412 93.7477 47.0148C94.1182 45.6176 94.1856 44.2939 93.7477 43.0438C93.3771 41.7447 92.7708 40.1514 91.9287 38.1659L91.2213 36.5971C90.3791 34.9302 89.3012 32.7977 88.9643 31.9398C88.6274 31.0818 88.459 30.2974 88.5264 29.7091C88.5601 29.0963 88.9643 28.5571 89.5033 28.1158C90.2781 27.503 91.1539 27.1599 92.1308 27.1599L103.382 27.2334H103.517L103.483 27.1354Z" fill="white"/>
<path d="M17.3796 11.4228L17.986 10.6138C11.4509 10.5403 8.9245 8.5058 12.192 6.03006C14.5837 4.21615 19.5692 2.69639 24.4537 2.03456L24.9589 1.32371C19.0639 1.912 12.3941 4.09359 9.46348 6.17713C5.55592 9.02055 9.05925 11.3737 17.346 11.4473L17.3796 11.4228Z" fill="white"/>
<path d="M15.2236 12.9424H16.2005L17.0763 11.7903C8.14957 11.7168 4.44414 9.19201 8.72223 6.15249C11.8213 3.92188 18.6595 1.66675 25.1272 1.10297L25.5315 0.539188C18.289 0.833335 9.73281 3.21102 5.92631 6.05444C1.24398 9.65774 5.11785 12.9179 15.2573 12.9179L15.2236 12.9424Z" fill="white"/>
<path d="M5.96006 13.8984C9.76655 14.7809 13.8089 14.6093 15.0215 14.5358L15.9311 13.3101H14.9205C4.27577 13.3101 0.199782 9.78038 5.18528 6.07903C9.19389 3.08854 17.9185 0.661827 25.6999 0.416704L26.0705 -3.8147e-06C17.009 0.269631 6.93694 2.8189 2.38936 6.15257C-1.82137 9.26562 -0.372877 12.4522 5.99374 13.8494L5.92637 13.8984H5.96006Z" fill="white"/>
<path d="M18.0532 11.4229H19.7375L20.1417 10.6385H18.6596L18.0869 11.4229H18.0195H18.0532Z" fill="white"/>
<path d="M15.8972 14.5112C16.5035 14.5112 17.4131 14.4377 18.1878 14.3642L18.7605 13.2611C18.0868 13.2611 17.2783 13.3346 16.7393 13.3346L15.9646 14.5112H15.8972Z" fill="white"/>
<path d="M16.9752 12.9424C17.75 12.9424 18.39 12.8688 18.9627 12.8688L19.5353 11.7903H17.8174L17.0426 12.8934L16.9752 12.9424Z" fill="white"/>
<path d="M51.537 3.67663C51.7054 3.0148 52.0086 2.52455 52.4128 2.30394C52.8171 2.03431 53.4234 1.88724 54.2992 1.88724H57.0615L57.5331 0.318452H53.7603C51.8739 0.318452 50.4591 0.588086 49.5832 1.05382C48.7748 1.54406 48.101 2.50004 47.6968 3.89724L45.7767 10.6381C45.4062 11.8147 45.6083 12.7216 46.2483 13.3099C46.922 13.8737 48.0337 14.1924 49.6506 14.1924H54.0297L54.5013 12.6236H51.6381C50.6612 12.6236 50.0548 12.4275 49.819 12.0598C49.5158 11.6921 49.5158 11.1284 49.819 10.2704L50.8296 6.66712H55.4109L55.9835 4.80419H51.4023L51.7728 3.65212L51.6044 3.57858L51.537 3.67663Z" fill="white"/>
<path d="M67.2009 0.293941H60.8343L56.7583 14.1924H60.6322L64.2029 1.93626H64.8766C65.5503 1.93626 65.9546 2.05882 66.2577 2.27943C66.5272 2.50004 66.5609 2.79419 66.4262 3.2109L63.1586 14.1924H67.0325L70.3 3.11285C70.5695 2.23041 70.4011 1.54407 69.8284 1.07833C69.3231 0.563576 68.4473 0.342965 67.2683 0.342965H67.2009V0.293941Z" fill="white"/>
<path d="M84.1449 0.293941H73.0959L72.6917 1.88724H76.195L72.6243 14.1924H76.4982L80.0689 1.88724H83.6733L84.1449 0.293941Z" fill="white"/>
<path d="M91.7915 3.38248L91.3199 4.90224H88.3219L88.7935 3.38248C88.9619 2.8187 89.1641 2.37748 89.4672 2.15687C89.7704 1.88724 90.242 1.78919 90.781 1.78919C91.3199 1.78919 91.6568 1.91175 91.7915 2.15687C91.96 2.42651 91.96 2.8187 91.7915 3.38248ZM91.2189 0.146866C89.4335 0.146866 88.0187 0.490038 86.8734 1.15187C85.7955 1.78919 85.0544 2.74516 84.6838 3.97078L81.6858 14.1924H85.5597L87.7493 6.74066H90.7473L88.5577 14.1924H92.4316L95.4296 3.97078C95.8002 2.64712 95.6991 1.71565 94.958 1.07833C94.3517 0.490037 93.0716 0.19589 91.1852 0.19589V0.146866H91.2189Z" fill="white"/>
<path d="M106.95 0.29423L104.053 10.2952C103.784 11.0796 103.548 11.6189 103.278 11.9375C102.975 12.2317 102.571 12.3788 102.066 12.3788C101.56 12.3788 101.19 12.1827 101.055 11.8885C100.954 11.5453 101.055 11.0306 101.224 10.2952L104.121 0.29423H100.247L97.2824 10.3442C96.9118 11.6679 97.0129 12.7219 97.754 13.3347C98.5287 14.0456 99.6404 14.3643 101.426 14.3643C103.211 14.3643 104.626 14.0211 105.704 13.3593C106.714 12.6974 107.489 11.6434 107.893 10.3197L110.858 0.269718H106.95H107.018L106.95 0.29423Z" fill="white"/>
<path d="M134.37 3.40728C134.269 4.28973 134 5.58887 133.495 7.25571C132.989 8.97156 132.518 10.2217 132.113 11.1041C131.709 11.9866 131.103 12.4278 130.294 12.4278C129.486 12.4278 129.115 12.0111 129.216 11.2512C129.216 10.4423 129.587 9.09413 130.126 7.25571C130.598 5.58887 131.103 4.33875 131.507 3.4318C131.979 2.54936 132.585 2.05911 133.326 2.05911C134.067 2.05911 134.505 2.50033 134.337 3.38277L134.37 3.40728ZM137.739 1.44631C137.065 0.588377 135.752 0.147157 133.865 0.147157C131.979 0.147157 130.395 0.637402 129.183 1.54435C127.97 2.50033 126.926 4.38777 126.117 7.25571C125.309 10.0746 125.208 11.9621 125.848 12.918C126.522 13.874 127.768 14.3643 129.654 14.3643C131.541 14.3643 133.057 13.874 134.303 12.918C135.516 11.913 136.56 10.0746 137.368 7.25571C138.278 4.26521 138.379 2.27972 137.739 1.44631Z" fill="white"/>
<path d="M38.3657 12.133C38.0962 11.7653 38.0625 11.2015 38.3657 10.3436L39.4437 6.74027L40.0163 4.87734L40.3869 3.65173C40.5553 2.9899 40.8921 2.49965 41.2627 2.27904C41.6332 2.00941 42.2733 1.86233 43.0817 1.86233H45.844L46.3156 0.293551H42.5427C40.6227 0.293551 39.2415 0.563186 38.3657 1.02892C37.4899 1.51916 36.8835 2.47514 36.4793 3.87234L34.5592 10.6132C34.1887 11.7898 34.3571 12.6967 35.0308 13.285C35.7045 13.8733 36.8162 14.1675 38.4331 14.1675H42.8122L43.2838 12.5987H40.4205C39.41 12.5987 38.8036 12.4761 38.5341 12.1085L38.4331 12.0349L38.3657 12.133Z" fill="white"/>
<path d="M120.324 4.0198C120.054 4.80419 119.751 5.34346 119.448 5.66212C119.077 6.00529 118.639 6.15237 118.033 6.15237H116.921L118.134 1.86272H119.144C119.818 1.86272 120.222 2.0098 120.357 2.30394C120.559 2.59809 120.526 3.18639 120.256 4.0198L120.324 4.06883V4.0198ZM120.66 0.293941H114.799L110.723 14.1924H114.597L116.483 7.77017H118.1C118.572 7.77017 118.875 7.84371 119.111 8.03981C119.313 8.23591 119.414 8.45652 119.279 8.8242L117.763 14.1924H121.435L123.018 8.92225C123.187 8.33396 123.119 7.8192 122.715 7.35347C122.345 6.93676 121.705 6.69164 120.829 6.6181C121.806 6.39749 122.547 6.05432 123.187 5.53956C123.793 5.0248 124.197 4.36297 124.467 3.50504C124.837 2.42651 124.669 1.6176 124.096 1.05382C123.49 0.539063 122.412 0.269429 120.795 0.269429H120.694L120.66 0.293941Z" fill="white"/>
</svg>
